<?xml version="1.0" encoding="UTF-8"?>
<svg id="Calque_1" data-name="Calque 1" xmlns="http://www.w3.org/2000/svg" viewBox="0 0 280.17 280.17">
  <defs>
    <style>
      .cls-1 {
        stroke-width: 0px;
      }

      .cls-2 {
        fill: none;
        stroke: #000;
        stroke-miterlimit: 10;
        stroke-width: 2px;
      }
    </style>
  </defs>
  <path class="cls-1" d="M119.02,233.54c-1.2,0-2.1,0-2.69-.15-1.35-.3-2.85-.45-4.49-.6l-3.15-.15c-.9,0-1.8-.15-2.85-.6l-2.25-.6c-5.54-1.8-10.18-4.49-13.93-8.24-.75-.45-1.5-1.2-2.25-2.1l-2.4-2.1-2.4-3.44c-.75-1.05-1.5-2.25-2.1-3.89-.6-1.65-1.05-2.85-1.5-3.59-.45-.75-.75-1.65-.9-2.69l-.6-2.1c-.45-1.95-.75-3.29-.75-3.74l-.6-3.44c-.15-1.05-.3-2.1-.3-3.14v-1.05c.15-1.2.15-2.25.15-3.15-.15-.75-.15-1.5-.15-1.95,0-3.74.3-7.04,1.05-9.88v-.9c0-.75.15-1.5.45-2.4l.6-2.55c0-.45.15-.9.3-1.35l.45-.6c.15-.15.15-.45.15-.6.15-.6.3-1.35.75-2.4.45-.9.75-1.65.9-2.4.15-1.05.6-2.25,1.2-3.59l1.2-2.4c1.2-2.4,1.35-2.4,2.1-4.49.75-1.5.9-2.25,1.65-2.7l.45-.3c.45-.9.75-1.5,1.8-3.15.75-1.2,1.35-2.1,1.65-2.85l.6-.9c.15-.45.45-.75.9-.9.6-.45.9-.9,1.05-1.35.15-1.05.75-1.95,1.65-2.4.3-.15.6-.45.75-.75l1.2-1.5c.45-.75,1.2-1.2,1.95-1.65.15-.15.45-.45.75-1.05.3-.75.75-1.2,1.2-1.35.9-.45,1.65-1.05,2.25-2.1.15-.3.3-.45.45-.45l1.8-1.35,1.35-1.35c1.65-1.65,2.85-2.69,3.89-3.29.45-.75,1.2-1.35,2.4-2.1,1.2-.75,2.1-1.35,2.55-1.8l2.69-1.2c.75-.75,1.5-1.35,2.4-1.95.6-.45,1.5-.9,2.7-1.5,4.04-1.95,7.94-3.29,11.38-4.34l6.14-1.8c.45-.3.6-.6.6-.75l-.15-.45c-.45-.75-.6-1.65-.6-2.99l-.3-2.85-.15-1.2-.45-1.35c0-.75.15-1.65.6-2.85l1.65-5.09c0-.45.3-.9.75-1.65l.6-1.5.45-1.8c0-.3-.15-.6-.45-1.05-.3-.45-.6-.6-.75-.75-.6-.15-1.65-.45-2.99-1.05-1.2-.45-2.25-.75-3.15-.75h-.45c-.75,0-1.5-.15-2.25-.6l-1.95-.6-5.84-1.2c-.75-.15-1.5-.45-2.39-.75l-3.29-.6c-.9-.15-2.4-.3-4.64-.75-1.65-.15-3.14-.3-4.64-.3h-1.35c-1.95,0-4.64.45-8.24,1.2-.6.15-1.35.15-2.4.15l-2.25.45c-1.2.45-1.95.9-2.25,1.05-.45.3-.45.15-1.8.45-.75.15-1.2.45-1.35.6-.3.15-.6.3-1.05.75-.75.9-1.05,1.35-1.95,1.35l-.75.15c-.75.45-1.05,1.05-2.4,2.1-1.05.9-1.95,1.65-2.4,2.25-.9,1.35-1.8,3.15-2.7,5.39-1.35,2.69-1.95,3.14-1.95,6.44,0,1.5.15,2.99.45,4.34.75,2.1,2.25,4.04,4.64,5.99,1.35.75,3.44,1.65,6.29,2.69.6,0,1.05-.3,3.29-.3,1.35,0,2.55-.3,3.44-.75,2.85-1.8,4.49-2.69,6.29-4.49l1.05-1.2c.15-.45.45-.75.9-1.2l.75-1.8c.45-.9.9-1.65,1.35-2.1.15-.15.6-.75,1.05-1.8.15-.75.45-1.05,1.2-1.05h1.95c.75,0,1.35.15,1.8.6s.75,1.05.9,1.8c.15.3.15.75.15,1.5,0,.9-.3,1.95-.75,3.14-.15.45-1.05,1.65-2.4,3.59l-1.5,2.1c-3.59,2.7-4.64,3.89-7.19,5.24-.75.45-1.65.9-2.85,1.05l-3,.6c-1.2.45-2.25.6-3.14.6l-1.95-.3-1.35.3c-.75,0-1.5-.15-2.55-.6l-2.4-.75c-3.29-1.05-6.14-2.99-8.39-5.84-.75-.9-1.35-1.8-1.8-2.55l-1.8-2.4c-1.05-1.65-1.8-3.29-2.1-5.09-.45-2.85-.75-4.94-.75-6.44v-.9c.15-1.2.45-2.1.6-2.85l.15-1.2c-.15-.15-.15-.6-.15-1.05,0-1.05.45-1.95,1.2-2.55.45-.6.6-1.05.75-1.35,1.35-3.15,3.15-5.69,5.39-7.79.75-.75,1.2-1.05,1.5-1.05,1.05-1.35,2.85-2.7,5.09-3.74l5.24-2.7c.9-.45,1.95-.75,3.15-1.2,1.2-.45,2.25-.75,2.99-1.2.15-.15.45-.3.75-.3,1.65-.15,2.7-.45,3.29-.6,1.95-.45,3.44-.6,4.49-.75.6,0,1.35-.15,2.4-.45l2.4-.45h1.35c.75,0,1.2.15,1.65.3.75.3,1.65.45,2.7.45h.9c1.35,0,3.15.3,5.09.9l3.44.6c1.05.15,2.1.3,3.44.75,1.35.45,2.4.9,3.14,1.05.75.15,1.95.6,3.59,1.2,2.55,1.05,4.64,1.65,5.99,1.8.75.15,1.65.6,2.7,1.05s1.8.9,2.4,1.05c.45.3,1.2.6,2.1.75l2.39.6c.45,0,.75-.15.9-.3,2.25-3.15,4.94-5.84,7.94-8.09,1.2-.9,2.85-1.8,4.94-2.85,1.8-1.05,4.64-2.4,8.39-4.04,2.99-1.05,1.79-.3,4.34-1.95l1.2-.45,1.8-.3,2.1-.75c2.55-.75,5.24-1.05,8.39-1.05,1.65,0,2.85,0,3.59.15h.75c.45,0,1.2,0,2.1-.15l1.05-.15.9.15c2.55,0,4.64.3,6.59.9l2.7.6c.6.15,1.2.45,1.95.75l3.89,1.95c2.1,1.05,3.89,2.25,5.54,3.74,1.95,1.65,3.59,4.04,5.09,7.19.6,2.1.6,3.14,1.05,4.19.3.45.45.9.45,1.5l-.15.9c-.15,1.8-.45,3.29-.6,4.49l-1.05,2.25-.75,1.5c-.45.6-.75,1.2-1.2,1.65-1.79,2.25-4.64,4.04-8.38,5.69-1.65.75-3.15,1.35-4.79,1.8l-1.5.6-.6.3c-1.35,0-2.55,0-4.94.6-2.25.45-3.74.6-4.79.6l-3.29-.15-4.49-.45-1.8-.45h-1.35l-3.14-.45c-.75,0-1.35,0-1.5-.15-5.69-1.2-8.23-1.5-8.54-1.8l-4.34-1.05c-1.95-.45-3.59-1.05-4.94-1.8l-1.35-.3h-.9c-.9,0-1.65-.15-2.39-.6l-.45-.15c-.15,0-.45.3-.75.75-.3.75-.75,1.5-1.5,2.55-.75,1.05-1.2,1.95-1.35,2.7-.15.45-.3,1.2-.75,1.95l-.9,1.95-.3.75-1.05,5.99v.6c0,.45.45.6,1.2.75,3.14.15,7.79,1.05,13.78,2.7,2.55.9,4.64,1.95,6.14,3.15,2.55,2.4,3.89,4.79,3.89,7.34,0,1.35-.15,2.55-.6,3.89-.75,1.35-1.8,2.55-3.3,3.44-1.65.9-3.59,1.35-5.84,1.35-1.2,0-2.1,0-2.7-.15-.45-.15-.75-.15-1.2-.15l-.6.15-3.3-1.05c-.6-.45-1.35-.9-2.25-1.35l-3.14-1.65c-2.4-1.35-4.79-3.29-7.04-5.84-1.05-1.35-1.95-2.1-2.54-2.1-.3,0-.6.15-1.05.3l-1.35.6c-1.05.45-1.8.9-2.55,1.35l-2.1,1.05c-3.14,1.65-4.34,1.95-5.69,3.29l-1.2.9-1.5,1.35-1.5.9c-.15,0-.3.15-.45.3-.45.75-1.05,1.35-1.65,1.8-.75.6-1.35,1.2-1.8,1.95l-1.8,2.1c-1.95,1.5-2.55,2.85-2.55,2.85,0,.3-.15.45-.3.45-1.05,1.05-2.4,2.69-4.04,5.09l-2.1,3c-.75,1.05-1.5,2.25-2.25,3.59-.75,1.5-1.35,2.55-1.8,3.15l-2.25,4.64c-.45,1.05-1.05,2.55-2.1,4.49-.15.15-.15.6-.15,1.05-.15,1.35-.6,2.4-1.2,2.99-.15.45-.3,1.05-.3,1.8.15.3.15.75.15,1.2,0,.75-.3,2.1-.75,4.04l-.45,2.7-.3,2.69c-.15.45-.15,1.05-.15,1.95.3,6.74.15,9.58,1.05,13.63.15.6.3,1.2.3,1.8l-.15,1.2c0,.45.15.75.3,1.05l2.1,4.19c.75,2.55,1.95,4.79,3.59,7.04l.9,1.05c.15.45.45.75.6,1.05,1.65,2.4,3.89,4.34,7.04,5.99,2.99,1.2,5.24,1.95,6.74,2.25,2.55.6,4.64.9,6.59.9h1.2c2.7,0,1.35,0,4.19-.3,1.65-.15,3.15-.6,4.34-1.05s2.1-.6,2.55-.6,1.2-.15,2.39-.6l3.44-1.65c1.65-.75,2.99-1.5,4.19-2.25.9-.45,1.8-1.05,2.7-1.65l4.19-2.7c4.64-4.64,6.89-7.19,7.94-8.68.75-1.05,1.5-2.55,2.25-4.34l.75-1.35.45-1.35c.15-.15.15-.6.15-1.05,0-.9.15-1.65.6-2.1l.45-1.35.3-1.2c.45-1.05.6-2.1.6-3.44l-.15-2.4c0-.6,0-1.05.15-1.5l.15-.45-.15-.3v-.45l-1.05-5.09c-.45-3.14-2.1-5.54-4.64-7.19-1.95-1.5-4.79-2.55-8.53-3.29l-.3-.15c-.15,0-.45,0-.6.15-.6.15-1.65.45-3,.6-1.65.15-2.99.45-4.34.9l-.75.45-.6.45c-.45.45-1.05.75-1.5,1.05l-1.35.9c-2.55,1.95-4.19,3.59-4.94,5.24-.15.45-.6.75-1.35,1.2-.45.45-.75,1.05-.75,1.95v.75c0,1.95-1.05,3.74-3.14,5.24-.3.15-.75.3-1.5.3-1.05-.15-2.1-.75-2.85-1.95-.6-1.05-.9-2.25-.9-3.29,0-.9.15-1.65.6-2.1.3-.45.6-1.2,1.05-2.25.45-1.05.75-1.8,1.2-2.25,1.8-2.55,3.3-4.34,4.49-5.54.45-.45.9-.9,1.2-1.05l.75-.6c.9-.75.9-1.2,2.7-2.4.6-.45,1.2-.75,1.95-.9l1.5-.45,4.19-1.8c2.7-1.05,5.39-1.65,8.09-1.65,2.55,0,4.94.45,6.89,1.2l6.44,3.59c.75.3,1.35.75,1.95,1.5.6.75,1.05,1.5,1.5,2.25.75,1.2,1.5,2.7,2.25,4.34.6,1.8,1.05,3.15,1.5,3.89l.9,1.95-.15,1.35c0,.6.15,1.5.45,2.55s.45,1.95.45,2.69l-.15,3.89c.15,3,.15,1.5.15,4.19-.15.45-.3,1.05-.6,1.5s-.45.9-.6,1.35l-.3,1.35c-.15,1.2-.6,2.55-1.65,4.19l-.3,1.2c-.6,1.95-1.95,4.49-4.19,7.64l-.3.6-.45.6c-.6,1.2-1.35,2.1-2.4,2.85l-1.95,2.25c-.75.9-1.35,1.65-1.95,2.1-4.34,3.74-5.54,5.09-7.94,6.59l-5.69,3.44c-3.44,2.1-6.29,3.59-8.68,4.34-2.7,1.05-6.44,2.1-11.08,3.14-.45.15-1.8.45-3.74.6-.9,0-1.79.15-2.85.3l-.9.3-5.84-.15ZM207.52,87.99c.45,0,.6.15,1.5.15.75,0,1.5-.15,2.25-.6.45-.45,1.2-.6,1.65-.75,2.85-1.05,4.49-1.95,5.39-3.74.9-2.25,1.35-3.89,1.35-5.24l-.15-1.65c-.6-3.29-1.8-5.09-3.89-6.44-2.99-2.25-5.84-3.59-8.54-4.04-2.1-.15-3.74-.45-4.79-.9-4.49,0-7.34.15-10.78,1.2l-1.2.3c-.75.45-2.1.45-2.7.6-1.65.9-.15.45-5.24,2.4-5.39,1.8-6.59,3.44-8.54,4.04-1.2.75-1.95,1.5-2.4,1.95l-1.95,1.5c-1.05.45-3.44,2.7-3.89,3.59l-.15.45,2.1.6,2.4,1.05,1.35.3c1.5.15,3.74,1.05,5.39,1.5,3.14,1.05,5.24,1.65,6.29,1.8,4.04.6,7.79,1.35,11.23,2.4h2.39c2.55,0,4.04.3,5.54.3s2.4-.15,5.39-.75Z"/>
  <circle class="cls-2" cx="140.09" cy="140.09" r="139.09"/>
</svg>